<?xml version="1.0" encoding="UTF-8"?>
<svg width="1080px" height="1080px" viewBox="0 0 1080 1080" version="1.1" xmlns="http://www.w3.org/2000/svg" xmlns:xlink="http://www.w3.org/1999/xlink">
    <g stroke="none" stroke-width="1" fill="none" fill-rule="evenodd">
        <g>
            <rect fill="#FEE000" x="0" y="0" width="1080" height="1080" rx="540"></rect>
            <path d="M838,377 C849.335432,377 859.603365,381.654794 867.03375,389.19776 C874.42092,396.696857 879,407.054014 879,418.5 C879,429.945986 874.42092,440.303143 867.03375,447.80224 C859.603365,455.345206 849.335432,460 838,460 L710,460 L710,377 Z" id="嘴巴" stroke="#000000" stroke-width="16" fill-opacity="0.919088724" fill="#F33000" stroke-linejoin="round"></path>
            <path d="M624.5,240 C672.410702,240 715.785702,259.419649 747.183027,290.816973 C778.580351,322.214298 798,365.589298 798,413.5 C798,419.815338 797.662263,426.051815 797.004133,432.192388 L797.004133,647.807612 C797.662263,653.948185 798,660.184662 798,666.5 C798,713.891544 778.998844,756.845076 748.199481,788.158131 C717.340148,819.532157 674.636278,839.219224 627.333464,839.97731 L625.008215,839.995999 L375,840 L374.5,840 C327.108456,840 284.154924,820.998844 252.841869,790.199481 C221.4679,759.340204 201.780847,716.636433 201.022695,669.333721 L201.000003,666.532779 C200.991143,618.609082 220.412489,575.221458 251.816973,543.816973 C283.214298,512.419649 326.589298,493 374.5,493 L450,493 L450,410.992437 L451.018,410.993 L451.023244,410.63086 C451.773839,364.336352 470.656338,322.449529 500.878654,291.762479 L501.816973,290.816973 C533.214298,259.419649 576.589298,240 624.5,240 Z" stroke="#000000" stroke-width="16" fill="#FFFFFF" stroke-linejoin="round"></path>
            <circle fill="#000000" cx="673" cy="386" r="33"></circle>
        </g>
    </g>
</svg>